HIERARCHY
ROOT Hips
{
  OFFSET 40.9192 92.6879 18.85
  CHANNELS 6 Xposition Yposition Zposition Zrotation Xrotation Yrotation
  JOINT LeftUpLeg
  {
    OFFSET 8.64259 1.95398 -2.38835
    CHANNELS 3 Zrotation Xrotation Yrotation
    JOINT LeftLeg
    {
      OFFSET 43.7702 0 0
      CHANNELS 3 Zrotation Xrotation Yrotation
      JOINT LeftFoot
      {
        OFFSET 40.6238 0 0
        CHANNELS 3 Zrotation Xrotation Yrotation
        JOINT LeftToeBase
        {
          OFFSET 12.7242 0 0
          CHANNELS 3 Zrotation Xrotation Yrotation
          End Site
          {
            OFFSET 0 0 0
          }
        }
      }
    }
  }
  JOINT RightUpLeg
  {
    OFFSET -8.2249 1.95398 -2.59336
    CHANNELS 3 Zrotation Xrotation Yrotation
    JOINT RightLeg
    {
      OFFSET 43.5653 0 0
      CHANNELS 3 Zrotation Xrotation Yrotation
      JOINT RightFoot
      {
        OFFSET 40.6238 0 0
        CHANNELS 3 Zrotation Xrotation Yrotation
        JOINT RightToeBase
        {
          OFFSET 12.7242 0 0
          CHANNELS 3 Zrotation Xrotation Yrotation
          End Site
          {
            OFFSET 0 0 0
          }
        }
      }
    }
  }
  JOINT Spine
  {
    OFFSET 0.165834 0.87714 6.61349
    CHANNELS 3 Zrotation Xrotation Yrotation
    JOINT Spine1
    {
      OFFSET 7.38963 1.71661e-005 0
      CHANNELS 3 Zrotation Xrotation Yrotation
      JOINT Spine2
      {
        OFFSET 11.9445 1.14441e-005 0
        CHANNELS 3 Zrotation Xrotation Yrotation
        JOINT Spine3
        {
          OFFSET 14.7254 4.19617e-005 0
          CHANNELS 3 Zrotation Xrotation Yrotation
          JOINT Spine4
          {
            OFFSET 10.9679 0 0
            CHANNELS 3 Zrotation Xrotation Yrotation
            JOINT RightShoulder
            {
              OFFSET 2.46616 -1.6653 3.69651
              CHANNELS 3 Zrotation Xrotation Yrotation
              JOINT RightArm
              {
                OFFSET 13.0012 0 0
                CHANNELS 3 Zrotation Xrotation Yrotation
                JOINT RightForeArm
                {
                  OFFSET 28.7848 1.52588e-005 0
                  CHANNELS 3 Zrotation Xrotation Yrotation
                  JOINT RightHand
                  {
                    OFFSET 26.5688 1.52588e-005 0
                    CHANNELS 3 Zrotation Xrotation Yrotation
                    End Site
                    {
                      OFFSET 0 0 0
                    }
                  }
                }
              }
            }
            JOINT LeftShoulder
            {
              OFFSET 2.38034 -1.29275 -3.7523
              CHANNELS 3 Zrotation Xrotation Yrotation
              JOINT LeftArm
              {
                OFFSET 16.3182 6.10351e-005 0
                CHANNELS 3 Zrotation Xrotation Yrotation
                JOINT LeftForeArm
                {
                  OFFSET 27.0901 0 0
                  CHANNELS 3 Zrotation Xrotation Yrotation
                  JOINT LeftHand
                  {
                    OFFSET 24.5451 1.52588e-005 0
                    CHANNELS 3 Zrotation Xrotation Yrotation
                    End Site
                    {
                      OFFSET 0 0 0
                    }
                  }
                }
              }
            }
            JOINT Neck
            {
              OFFSET 5.0226 -0.0266342 0
              CHANNELS 3 Zrotation Xrotation Yrotation
              JOINT Head
              {
                OFFSET 6.69363 2.86102e-005 0
                CHANNELS 3 Zrotation Xrotation Yrotation
                End Site
                {
                  OFFSET 0 0 0
                }
              }
            }
          }
        }
      }
    }
  }
}
MOTION
Frames:	18
Frame Time:	0.0416667
-288.216 88.2816 -276.126 102.471 -42.4939 105.988 -170.564 17.9305 116.84 -87.3704 -51.0911 -7.51209 18.7902 -20.2813 -78.42 -5.37127 10.3581 -89.0456 175.984 19.8471 100.106 -59.118 -2.00114 2.03585 5.32638 9.45715 17.8849 95.7563 7.74845 7.13708 -0.358974 7.62462 -90.8312 11.6148 -1.10341 -1.54195 -0.056551 -1.1702 -1.49191 -22.5857 -0.589059 -1.8022 -2.57308 -0.589065 -1.80221 102.714 -52.667 -81.1562 10.8382 -9.39736 -37.2053 20.5615 -1.737 -66.599 -20.2312 9.67851 -62.6563 -90.9921 -43.5488 75.6547 -44.6914 26.0732 31.5862 12.1891 -6.22341 -90.0967 26.7751 0.658395 -1.48986 -1.24505 1.98134 -2.16551 6.79575 2.80045 6.03461 
-285.997 89.0741 -272.813 98.5951 -31.951 101.283 178.047 21.5035 102.623 -66.5155 -46.5561 11.5681 18.0635 -20.2946 -20.8739 60.9654 -7.79549 -118.759 170.738 14.4589 95.6163 -58.4821 7.97449 10.0993 20.3139 7.1244 10.5373 89.2984 8.38354 10.1908 -1.2973 9.11352 -91.0446 8.6188 -3.05137 -1.86474 -3.04952 -3.13045 -1.72858 -25.5943 -2.35 -2.69559 -5.58163 -2.34999 -2.69559 94.4832 -44.5909 -94.7308 22.8728 -1.80874 -11.1006 28.5485 -12.2392 -96.3286 -17.2632 9.4124 -73.9568 -92.7015 -47.581 74.0641 -34.0177 19.4527 20.4089 10.3918 -1.30727 -81.6274 30.1801 1.4208 0.820376 14.6356 1.35212 1.7641 4.65657 1.23636 3.61009 
-280.874 89.057 -267.239 97.3228 -43.4362 98.9288 -176.406 35.8051 95.3251 -71.6961 12.5566 1.62489 54.1351 -2.81256 -4.48921 44.9979 13.4816 0.96482 176.813 10.0087 98.5644 -54.8858 -1.80072 -0.127782 26.2727 9.14821 11.9177 89.6266 8.36749 9.31254 0.378528 8.55121 -90.5579 9.77672 0.501467 -1.15315 -1.89605 0.450248 -1.17409 -24.4191 0.824756 -0.94928 -4.40646 0.824746 -0.949294 95.8744 -42.0236 -92.8443 30.5275 -2.89619 5.69538 55.827 -25.3146 -100.556 -15.7723 0.0108512 -92.641 -90.9044 -46.5962 76.5753 -38.7834 20.796 31.9617 6.33433 -3.18588 -82.5939 30.8423 1.12092 -0.320727 13.1581 -1.02664 2.66616 3.63043 -1.52326 1.12979 
-271.071 91.7375 -257.195 88.7243 -54.4102 88.4947 -169.572 38.522 92.739 -43.0165 16.9828 -3.68619 51.4203 -5.82289 -0.374899 37.3452 7.23774 14.3253 178.892 1.6162 90.2347 -40.5289 -3.58117 -5.89827 33.4894 6.08587 7.22714 70.023 11.37 35.2915 1.7608 7.79722 -89.8069 11.2893 3.59375 0.0171437 -0.376459 3.59104 -0.141253 -22.9504 3.42227 1.09774 -2.93779 3.42229 1.09775 95.7175 -39.3703 -93.5351 33.4001 -7.90569 4.47496 -86.1945 8.69314 -93.3259 28.2311 -17.9946 -52.5052 -88.7252 -43.7668 79.3493 -44.2808 19.5535 40.1979 8.24998 -3.41366 -84.8805 32.1078 1.20609 -0.191652 13.7625 -2.86358 3.48658 2.44698 -3.59479 0.0626364 
-259.226 93.896 -245.407 86.0047 -50.7701 85.3762 -172.837 34.0067 89.5453 -19.7585 22.6213 -3.57561 48.3645 -8.02249 -0.304142 41.3705 11.0132 13.5998 175.56 -6.82902 89.1856 -38.2195 -16.8598 -4.75418 42.4569 4.80041 4.52918 35.7391 0.360402 -3.56751 1.59616 7.43161 -89.5717 12.0077 3.37551 0.486862 0.341059 3.39367 0.337649 -22.2238 3.073 1.47972 -2.21114 3.073 1.47972 96.1402 -39.9078 -92.7 34.2043 -18.7536 7.30923 -49.4594 1.40277 -99.3604 -9.83095 0.272122 -9.90791 -87.981 -40.9453 79.9466 -47.6589 17.3438 45.0164 7.44554 -4.20064 -87.3945 31.8702 1.148 -0.350846 14.1741 -3.79089 3.0303 1.29442 -4.38175 0.483909 
-248.824 93.9009 -234.917 87.1869 -51.4067 88.8412 -169.869 31.5033 90.442 -21.0902 18.0426 -5.63546 48.9312 -7.92404 -1.63653 39.7217 9.35472 12.0451 178.967 -1.55294 90.897 -55.0697 -6.86901 -5.00272 41.197 4.07596 4.05374 33.1953 0.381251 -6.72026 1.61894 7.36528 -89.7679 12.1475 3.32803 0.0966101 0.48088 3.32904 -0.0501207 -22.0859 3.14498 1.09336 -2.07328 3.14496 1.09335 96.07 -40.698 -92.7029 35.6089 -25.7043 11.4436 -25.9203 -2.07161 -94.4342 -23.0207 -0.0390361 -3.93235 -87.1336 -41.6818 81.5085 -46.5587 15.5865 44.5096 10.0241 -4.56758 -89.6158 30.6493 0.961791 -0.819341 14.0959 -2.8987 3.05366 1.65445 -3.58797 -0.801659 
-239.309 92.5689 -224.961 94.4975 -51.0393 92.0332 -168.692 22.7639 87.2814 -31.5747 16.7523 -6.546 59.5689 0.884045 5.59598 30.666 1.41194 0.611743 178.421 7.18727 89.8281 -74.2233 4.61938 -3.97605 46.441 0.821222 0.991735 33.037 0.295065 -3.02005 1.21646 7.75928 -89.4603 11.3451 2.67204 0.806519 -0.323375 2.70493 0.688059 -22.8732 2.30612 1.5726 -2.86055 2.30609 1.57258 95.5498 -43.3114 -93.2081 35.3501 -24.5737 16.6936 -23.1914 -9.51434 -85.6747 -29.7276 1.17079 -7.99809 -87.376 -44.6773 81.6995 -42.5069 15.4748 39.8237 10.1308 -4.39747 -90.133 32.2599 0.910047 -1.16134 11.1511 -1.24413 2.07312 3.79687 -1.75818 -1.34772 
-230.294 91.1775 -215.064 91.9658 -50.1095 87.4215 -169.382 17.8482 84.4776 -38.305 21.0767 -6.29782 66.9807 10.1339 15.0198 35.3509 5.15881 3.51718 177.948 22.6783 86.601 -82.7203 8.03344 -2.89873 53.0263 -2.08171 -1.27393 38.3032 0.415891 -3.09075 0.5671 7.74072 -88.9731 11.3786 1.60749 1.88027 -0.292508 1.68869 1.8077 -22.8211 0.968208 2.27629 -2.80841 0.968207 2.27628 95.3119 -47.4117 -92.9952 33.3284 -21.2911 18.8451 -19.5875 -11.021 -77.5609 -27.7492 0.304624 -4.97654 -89.3556 -47.0389 79.0737 -35.0654 16.6082 29.3055 8.46468 -4.03687 -89.5465 32.2188 1.69609 1.37505 12.7918 0.427764 -0.664561 3.94235 0.541758 -0.460753 
-221.267 91.6533 -205.339 91.618 -45.8525 87.439 -171.632 10.616 85.3223 -40.4993 17.6643 -3.67158 67.5341 9.14536 8.35665 43.6353 11.9755 3.20194 175.241 31.9445 87.7887 -74.6239 8.45502 -1.29758 59.3363 -3.14769 -1.91136 36.6623 0.367183 -5.88536 -0.318347 7.69787 -89.0367 11.4757 -0.183237 1.93753 -0.196648 -0.0977668 1.94371 -22.7216 -0.756969 1.79298 -2.70897 -0.756951 1.79297 96.1617 -49.1427 -91.4244 33.196 -20.0928 24.2285 -15.5937 -12.5177 -73.1839 -27.2691 -0.485725 -2.25609 -90.4239 -45.0641 76.9442 -32.1138 18.2178 21.3931 12.3219 -4.37213 -90.4795 32.9429 1.44251 0.443438 12.2009 2.14748 -2.53453 3.20628 2.7842 1.89591 
-211.309 93.2889 -195.407 93.4371 -47.8012 89.9714 -170.974 5.0819 88.3872 -43.4557 18.8698 -2.96907 53.4899 -3.41187 -2.89639 46.3933 15.9416 13.9379 175.985 31.4054 89.2699 -49.4951 7.12039 -0.956912 61.332 -1.95407 -1.08563 38.3597 0.332178 -7.59792 -0.409814 7.69346 -89.3291 11.4885 -0.501712 1.38741 -0.183188 -0.440164 1.40814 -22.7144 -0.895458 1.17254 -2.70171 -0.895471 1.17253 96.6367 -48.0697 -90.8008 33.9043 -20.5058 30.6677 -13.7657 -11.9203 -76.2869 -28.6222 -0.155007 -3.75424 -89.6072 -44.0571 77.9997 -31.8853 18.4902 19.5356 12.1592 -5.90832 -96.3014 34.1893 1.33918 -0.0461696 10.6551 3.85647 -3.08079 2.04716 4.69099 4.71846 
-201.764 93.7045 -185.157 95.2659 -45.7841 92.0464 -171.316 8.23317 90.471 -55.9173 16.9498 -1.34544 43.2429 -9.74027 -4.89425 33.9291 3.69341 12.463 175.246 26.5021 89.4291 -23.8281 -0.33087 -0.0212483 51.9353 2.05564 1.86485 38.5053 0.333517 -8.70616 -0.647548 7.823 -89.5954 11.2321 -1.10047 0.913245 -0.438736 -1.05921 0.960781 -22.9767 -1.32404 0.540263 -2.96404 -1.32405 0.540261 96.0274 -48.0735 -91.7682 31.9209 -20.0162 31.4479 -15.7765 -11.2005 -77.8709 -26.69 -0.0337268 -4.23512 -89.6699 -44.4082 77.9841 -31.5671 18.4508 20.0518 12.6512 -7.60165 -95.813 31.6571 1.39359 0.444921 9.37961 3.8632 -3.23157 2.44264 4.78696 5.81886 
-192.584 92.8996 -175.348 98.9587 -44.8428 94.5403 -170.64 15.4048 90.1016 -67.3393 14.2882 -1.07341 51.7746 -3.04566 2.06595 35.6288 5.34026 9.5626 174.932 24.143 89.6127 -26.9202 -3.58346 -0.0168697 52.1683 1.89986 1.62991 29.799 0.13663 -3.73599 -0.404712 8.13875 -89.722 10.5979 -0.678108 0.6138 -1.07304 -0.650433 0.643047 -23.6091 -0.831239 0.38162 -3.59648 -0.831232 0.38162 96.4324 -47.6922 -91.1691 29.3639 -18.9101 26.9895 -18.4196 -8.84576 -78.0816 -29.4101 0.770498 -6.95516 -91.4946 -45.2416 75.3046 -30.7097 18.6648 21.4861 14.6512 -0.720563 -87.2884 33.2553 -0.894863 -6.76385 7.06829 2.27376 -2.47943 4.41166 3.09604 5.31018 
-184.441 90.4106 -165.888 101.496 -45.5841 96.2021 -168.712 25.1663 88.9793 -67.5229 10.521 -1.84701 60.5296 3.47082 2.02462 40.4343 10.2155 15.1838 176.922 23.9686 91.4054 -46.4525 1.13614 -1.88561 67.4169 -3.95107 -2.16017 33.773 0.277422 -1.33801 0.0459897 8.36837 -89.7052 10.1362 0.22608 0.566317 -1.53482 0.25079 0.555814 -24.069 0.0454356 0.608086 -4.05635 0.0454356 0.608082 96.4458 -45.0466 -91.4715 29.3136 -17.6857 19.7934 -19.917 -8.29076 -78.4313 -25.42 -0.147408 -3.59223 -91.383 -44.0951 75.1761 -31.4975 16.797 24.2815 12.6995 -1.30261 -82.1364 32.3433 1.88186 1.93434 6.81774 0.688791 -1.58195 4.84766 1.30861 4.22158 
-176.008 89.0186 -156.802 100.45 -46.4002 99.0875 -169.037 33.8043 91.0472 -52.4469 9.4721 -2.98118 62.8151 3.62085 2.98369 41.4603 11.4215 16.887 176.504 19.5808 95.071 -53.5729 2.68444 -0.944879 75.3755 -7.57454 -3.62481 39.1136 0.395057 -4.32823 0.571055 8.37016 -90.167 10.1392 1.06174 -0.423052 -1.53144 1.0421 -0.469383 -24.07 1.13982 -0.0843622 -4.05731 1.1398 -0.0843689 95.7742 -42.4969 -92.9456 28.5444 -14.855 13.8348 -19.8617 -12.992 -79.2934 -24.7518 -1.3362 1.60616 -90.3919 -45.6092 77.1298 -29.6418 13.5285 26.2969 12.5936 0.117351 -78.8079 32.3778 2.01825 2.35582 9.72964 -0.318168 -0.250941 1.70012 -0.0556894 3.58709 
-166.738 88.9303 -146.881 101.675 -49.1192 97.7616 -168.346 31.0124 89.8442 -22.4543 10.8526 -6.76564 50.1858 -7.13709 -5.30046 37.8027 7.579 16.2901 176.954 14.1672 92.3146 -60.5109 -0.422345 -2.73246 72.8549 -6.79923 -3.42517 49.1663 0.481757 -5.0316 1.04762 8.25341 -89.8129 10.3648 2.17275 0.183379 -1.30436 2.17873 0.087521 -23.8525 2.01714 0.828165 -3.8398 2.01714 0.828161 95.1921 -42.6075 -93.9202 28.3095 -11.5861 13.164 -24.7425 -11.2917 -79.7814 -22.2508 -0.811089 -0.231182 -88.3157 -44.3581 80.1328 -29.5181 8.37702 30.1113 12.1007 -0.0360669 -79.6475 32.8829 2.24239 2.95632 6.25256 -1.09242 -0.766405 2.20908 -0.771345 2.7565 
-156.362 89.2513 -136.762 104.393 -48.7069 100.85 -169.436 25.9195 90.2064 -7.63169 10.7259 -6.8629 35.7328 -14.3534 -13.0495 34.5668 4.22818 14.6217 177.622 10.3981 91.2328 -67.619 -6.14981 -3.50815 54.5472 -0.104283 0.186808 50.6067 0.704737 -2.82908 1.21406 8.13835 -89.8644 10.5986 2.48035 0.0456865 -1.06998 2.47996 -0.0635978 -23.6227 2.35191 0.789446 -3.61007 2.35189 0.789431 96.0588 -43.1057 -92.3773 28.0707 -11.0554 13.2556 -26.2053 -10.4138 -80.1742 -23.0456 -1.16764 1.40523 -86.0703 -42.0693 83.3416 -28.2318 4.96864 33.0191 12.0655 -0.521601 -82.9628 36.4013 2.16801 2.04427 1.56273 -1.38142 -2.53087 2.28 -0.857614 3.07305 
-146.315 88.3679 -127.108 109.317 -48.5875 105.558 -168.557 26.0544 89.4054 -26.1816 22.6839 -7.22811 50.6061 -6.87171 -0.347965 20.2265 -8.26977 6.18566 179.528 10.6019 91.4572 -77.5561 -1.71871 -3.93736 53.4947 -0.739053 -0.418301 41.1948 0.341197 -6.3217 1.18724 8.08186 -89.8011 10.7102 2.45602 0.170124 -0.958443 2.46113 0.061785 -23.5103 2.29128 0.900773 -3.49764 2.29127 0.900773 97.0936 -43.5756 -90.5701 27.7764 -11.6251 13.1131 -23.5185 -10.8394 -80.0793 -25.823 -0.996915 0.191606 -83.5836 -38.4915 86.9975 -21.9705 1.07889 33.0055 10.2928 -1.12623 -86.5889 33.5321 2.28489 2.95255 -4.79296 -0.362333 -4.9728 5.51459 0.34223 3.82267 
-139.271 87.5563 -118.487 107.907 -45.8164 103.381 -169.337 28.3586 86.6821 -45.2127 21.5145 -4.7373 60.7992 2.26616 4.79471 24.9631 -3.1472 0.803015 178.627 21.1257 92.4681 -82.3072 10.5895 -2.80515 62.1375 -5.06401 -3.01533 39.9636 0.271977 -8.54911 0.67708 8.06332 -89.3865 10.7396 1.63122 1.07107 -0.930658 1.67681 0.998224 -23.4675 1.23392 1.51178 -3.45481 1.23394 1.51178 98.112 -45.8094 -88.6459 25.773 -7.727 12.274 -20.9116 -8.06243 -81.2943 -32.3214 -1.12786 -0.135837 -83.0906 -36.1469 87.5436 -9.63331 -9.28704 23.5929 10.9552 0.568724 -86.4423 34.1518 2.71902 4.1292 -1.86229 -0.0113963 -7.23282 1.72574 0.927505 4.00538 
